<svg width="69" height="69" viewBox="0 0 69 69" fill="none" xmlns="http://www.w3.org/2000/svg">
    <g clip-path="url(#clip0_110_3)">
    <path fill-rule="evenodd" clip-rule="evenodd" d="M55.6515 21.204C53.0322 17.0103 49.2281 13.6874 44.7203 11.6556C40.2125 9.62386 35.2034 8.97444 30.3265 9.78949C25.4496 10.6045 20.924 12.8475 17.3218 16.2346C13.7196 19.6218 11.2027 24.001 10.0894 28.8186C8.97615 33.6361 9.31643 38.6757 11.0673 43.2998C12.8181 47.924 15.9008 51.9252 19.9256 54.7973C23.9504 57.6695 28.7366 59.2836 33.6788 59.4357C38.6209 59.5877 43.4972 58.2708 47.691 55.6515C53.3122 52.137 57.3082 46.5346 58.8009 40.0754C60.2935 33.6161 59.1608 26.8285 55.6515 21.204V21.204ZM52.8243 22.9698C55.0944 26.6044 56.2357 30.8305 56.1039 35.1138C55.9722 39.397 54.5732 43.545 52.084 47.0331C49.5948 50.5213 46.1271 53.193 42.1195 54.7104C38.1119 56.2278 33.7443 56.5227 29.5691 55.5578C25.3939 54.593 21.5985 52.4117 18.663 49.2898C15.7275 46.1679 13.7836 42.2457 13.0772 38.019C12.3709 33.7924 12.9337 29.4512 14.6946 25.5444C16.4554 21.6376 19.3352 18.3408 22.9698 16.0707C27.8444 13.0293 33.727 12.0476 39.325 13.3412C44.923 14.6349 49.7784 18.0981 52.8243 22.9698V22.9698Z" fill="white"/>
    <path fill-rule="evenodd" clip-rule="evenodd" d="M53.355 20.6733L50.5278 22.4391C50.1529 22.6733 49.8864 23.0468 49.7868 23.4774C49.6873 23.9081 49.7629 24.3607 49.9971 24.7356C50.2313 25.1105 50.6048 25.3771 51.0354 25.4766C51.4661 25.5761 51.9187 25.5005 52.2936 25.2663L55.1208 23.5005C55.4957 23.2663 55.7623 22.8928 55.8618 22.4622C55.9613 22.0315 55.8857 21.5789 55.6515 21.204C55.4173 20.8291 55.0438 20.5626 54.6132 20.463C54.1825 20.3635 53.7299 20.4391 53.355 20.6733V20.6733Z" fill="white"/>
    <path fill-rule="evenodd" clip-rule="evenodd" d="M15.54 48.2217L18.3672 46.4559C18.7421 46.2217 19.0086 45.8482 19.1082 45.4176C19.2077 44.9869 19.1321 44.5343 18.8979 44.1594C18.6637 43.7845 18.2902 43.5179 17.8596 43.4184C17.4289 43.3189 16.9763 43.3945 16.6014 43.6287L13.7742 45.3945C13.3993 45.6286 13.1328 46.0021 13.0332 46.4328C12.9337 46.8635 13.0093 47.3161 13.2435 47.691C13.4777 48.0659 13.8512 48.3324 14.2818 48.432C14.7125 48.5315 15.1651 48.4558 15.54 48.2217Z" fill="white"/>
    <path fill-rule="evenodd" clip-rule="evenodd" d="M48.2217 53.355L46.4559 50.5278C46.2217 50.1529 45.8482 49.8864 45.4176 49.7868C44.9869 49.6873 44.5343 49.7629 44.1594 49.9971C43.7845 50.2313 43.5179 50.6048 43.4184 51.0354C43.3189 51.4661 43.3945 51.9187 43.6287 52.2936L45.3945 55.1208C45.6287 55.4957 46.0022 55.7622 46.4328 55.8618C46.8635 55.9613 47.3161 55.8857 47.691 55.6515C48.0659 55.4173 48.3324 55.0438 48.432 54.6132C48.5315 54.1825 48.4559 53.7299 48.2217 53.355Z" fill="white"/>
    <path fill-rule="evenodd" clip-rule="evenodd" d="M25.2663 16.6014L23.5005 13.7742C23.2664 13.3993 22.8929 13.1328 22.4622 13.0332C22.0315 12.9337 21.5789 13.0093 21.204 13.2435C20.8291 13.4777 20.5626 13.8512 20.463 14.2818C20.3635 14.7125 20.4392 15.1651 20.6733 15.54L22.4391 18.3672C22.6733 18.7421 23.0468 19.0086 23.4774 19.1082C23.9081 19.2077 24.3607 19.1321 24.7356 18.8979C25.1105 18.6637 25.3771 18.2902 25.4766 17.8596C25.5761 17.4289 25.5005 16.9763 25.2663 16.6014Z" fill="white"/>
    <path fill-rule="evenodd" clip-rule="evenodd" d="M50.1121 39.6629C50.4458 39.6159 50.7573 39.4689 51.0057 39.2413C51.2541 39.0136 51.4276 38.7161 51.5035 38.3878C51.5794 38.0595 51.5539 37.716 51.4306 37.4025C51.3073 37.0889 51.0918 36.8201 50.8127 36.6315L36.7551 27.1367C36.4135 26.9055 35.9983 26.8091 35.5899 26.8662L18.7926 29.232C18.459 29.279 18.1474 29.426 17.899 29.6536C17.6507 29.8812 17.4771 30.1788 17.4012 30.5071C17.3254 30.8353 17.3508 31.1789 17.4741 31.4924C17.5974 31.8059 17.8129 32.0747 18.0921 32.2633L32.1483 41.759C32.4903 41.9903 32.906 42.0864 33.3149 42.0286L50.1121 39.6629V39.6629ZM45.355 36.9669L33.477 38.6418L23.5391 31.9267L35.4171 30.2518L45.355 36.9669Z" fill="white"/>
    <path d="M32.6904 35.5449C33.2965 36.5154 34.5745 36.8107 35.5449 36.2046C36.5154 35.5985 36.8107 34.3205 36.2046 33.3501C35.5985 32.3796 34.3205 32.0843 33.3501 32.6904C32.3796 33.2965 32.0843 34.5745 32.6904 35.5449Z" fill="white"/>
    </g>
    <defs>
    <clipPath id="clip0_110_3">
    <rect width="50" height="50" fill="white" transform="translate(42.408) rotate(58.0121)"/>
    </clipPath>
    </defs>
</svg>
